<svg width="50" height="50" viewBox="0 0 50 50" fill="none" xmlns="http://www.w3.org/2000/svg">
<path opacity="0.5" d="M24.8752 4.60438L19.8543 16.2919H14.8335C14.0002 16.2919 13.1877 16.3544 12.396 16.521L14.4793 11.5211L14.5627 11.3336L14.6877 11.0002C14.7502 10.8544 14.7918 10.7294 14.8543 10.6252C17.271 5.02105 19.9793 3.27105 24.8752 4.60438Z" fill="#FA61A4"/>
<path opacity="0.5" d="M39.0208 16.8544L38.9792 16.8336C37.7292 16.4794 36.4583 16.2919 35.1667 16.2919H22.125L26.8125 5.39608L26.875 5.25024C27.1667 5.35441 27.4792 5.50024 27.7917 5.60441L32.3958 7.54191C34.9583 8.60441 36.75 9.70858 37.8542 11.0419C38.0417 11.2919 38.2083 11.5211 38.375 11.7919C38.5625 12.0836 38.7083 12.3752 38.7917 12.6877C38.875 12.8752 38.9375 13.0419 38.9792 13.2294C39.2917 14.2919 39.3125 15.5002 39.0208 16.8544Z" fill="#FA61A4"/>
<path d="M26.0835 36.7918H26.6043C27.2293 36.7918 27.7502 36.2293 27.7502 35.5418C27.7502 34.6668 27.5002 34.5418 26.9585 34.3335L26.0835 34.021V36.7918Z" fill="#FA61A4"/>
<path d="M38.104 19.8337C37.1665 19.5628 36.1873 19.417 35.1665 19.417H14.8332C13.4165 19.417 12.0832 19.6878 10.8332 20.2295C7.20817 21.792 4.6665 25.3962 4.6665 29.5837V33.6462C4.6665 34.1462 4.70817 34.6253 4.77067 35.1253C5.229 41.7503 8.77067 45.292 15.3957 45.7295C15.8748 45.792 16.354 45.8337 16.8748 45.8337H33.1248C40.8332 45.8337 44.8957 42.167 45.2915 34.8753C45.3123 34.4795 45.3332 34.0628 45.3332 33.6462V29.5837C45.3332 24.9795 42.2707 21.1045 38.104 19.8337ZM27.6665 32.292C28.6248 32.6253 29.9165 33.3337 29.9165 35.542C29.9165 37.4378 28.4373 38.9587 26.604 38.9587H26.0832V39.417C26.0832 40.0212 25.604 40.5003 24.9998 40.5003C24.3957 40.5003 23.9165 40.0212 23.9165 39.417V38.9587H23.729C21.729 38.9587 20.0832 37.2712 20.0832 35.1878C20.0832 34.5837 20.5623 34.1045 21.1665 34.1045C21.7707 34.1045 22.2498 34.5837 22.2498 35.1878C22.2498 36.0628 22.9165 36.792 23.729 36.792H23.9165V33.2712L22.3332 32.7087C21.3748 32.3753 20.0832 31.667 20.0832 29.4587C20.0832 27.5628 21.5623 26.042 23.3957 26.042H23.9165V25.5837C23.9165 24.9795 24.3957 24.5003 24.9998 24.5003C25.604 24.5003 26.0832 24.9795 26.0832 25.5837V26.042H26.2707C28.2707 26.042 29.9165 27.7295 29.9165 29.8128C29.9165 30.417 29.4373 30.8962 28.8332 30.8962C28.229 30.8962 27.7498 30.417 27.7498 29.8128C27.7498 28.9378 27.0832 28.2087 26.2707 28.2087H26.0832V31.7295L27.6665 32.292Z" fill="#FA61A4"/>
<path d="M22.25 29.4585C22.25 30.3335 22.5 30.4585 23.0417 30.6668L23.9167 30.9793V28.2085H23.3958C22.75 28.2085 22.25 28.771 22.25 29.4585Z" fill="#FA61A4"/>
</svg>
