<svg width="22" height="22" viewBox="0 0 22 22" fill="none" xmlns="http://www.w3.org/2000/svg">
<path d="M11.0092 1.84351C11.7222 1.84355 12.4107 2.10326 12.9461 2.57409L13.0873 2.70701L13.7271 3.34684C13.9027 3.52129 14.132 3.63142 14.378 3.65942L14.5017 3.66676H15.4184C16.1675 3.66671 16.8882 3.95328 17.4328 4.46768C17.9774 4.98209 18.3045 5.68535 18.3471 6.43326L18.3517 6.60009V7.51676C18.3517 7.76426 18.4361 8.00534 18.5882 8.19784L18.6707 8.28951L19.3096 8.92934C19.8392 9.45592 20.148 10.1647 20.173 10.9111C20.1981 11.6574 19.9375 12.3853 19.4444 12.9462L19.3115 13.0873L18.6716 13.7272C18.4972 13.9028 18.3871 14.1321 18.3591 14.378L18.3517 14.5018V15.4184C18.3518 16.1675 18.0652 16.8883 17.5508 17.4329C17.0364 17.9774 16.3331 18.3046 15.5852 18.3472L15.4184 18.3518H14.5017C14.2546 18.3518 14.0146 18.4352 13.8206 18.5883L13.729 18.6708L13.0891 19.3097C12.5626 19.8393 11.8538 20.148 11.1074 20.1731C10.361 20.1981 9.63318 19.9375 9.0723 19.4444L8.93113 19.3115L8.2913 18.6717C8.1157 18.4972 7.8864 18.3871 7.64047 18.3591L7.51672 18.3518H6.60005C5.85093 18.3518 5.13019 18.0652 4.58561 17.5508C4.04104 17.0364 3.71391 16.3332 3.6713 15.5853L3.66672 15.4184V14.5018C3.66664 14.2546 3.58333 14.0147 3.43022 13.8207L3.34772 13.729L2.7088 13.0892C2.17923 12.5626 1.87044 11.8539 1.8454 11.1075C1.82036 10.3611 2.08096 9.63322 2.57405 9.07234L2.70697 8.93117L3.3468 8.29134C3.52125 8.11574 3.63138 7.88644 3.65939 7.64051L3.66672 7.51676V6.60009L3.6713 6.43326C3.71223 5.71408 4.01636 5.03511 4.52572 4.52575C5.03507 4.0164 5.71404 3.71227 6.43322 3.67134L6.60005 3.66676H7.51672C7.76387 3.66667 8.00379 3.58336 8.1978 3.43026L8.28947 3.34776L8.9293 2.70884C9.20186 2.43465 9.52593 2.21705 9.88288 2.06855C10.2398 1.92004 10.6226 1.84356 11.0092 1.84351ZM14.3981 8.51867C14.2262 8.34683 13.9931 8.25029 13.7501 8.25029C13.507 8.25029 13.2739 8.34683 13.102 8.51867L10.0834 11.5363L8.89813 10.352L8.81197 10.2759C8.62773 10.1335 8.39616 10.0665 8.16432 10.0886C7.93247 10.1106 7.71773 10.2201 7.5637 10.3948C7.40966 10.5695 7.3279 10.7963 7.33501 11.0291C7.34212 11.2619 7.43757 11.4832 7.60197 11.6482L9.4353 13.4815L9.52147 13.5576C9.69784 13.6944 9.91807 13.7622 10.1408 13.7482C10.3636 13.7341 10.5736 13.6393 10.7315 13.4815L14.3981 9.81484L14.4742 9.72867C14.611 9.5523 14.6788 9.33207 14.6648 9.1093C14.6508 8.88653 14.556 8.67652 14.3981 8.51867Z" fill="#139D48"/>
</svg>
