<svg width="50" height="50" viewBox="0 0 50 50" fill="none" xmlns="http://www.w3.org/2000/svg">
<path opacity="0.5" d="M45.8333 17.7503V8.29199C45.8333 5.35449 44.5 4.16699 41.1875 4.16699H32.7708C29.4583 4.16699 28.125 5.35449 28.125 8.29199V17.7295C28.125 20.6878 29.4583 21.8545 32.7708 21.8545H41.1875C44.5 21.8753 45.8333 20.6878 45.8333 17.7503Z" fill="#FA61A4"/>
<path d="M45.8333 41.1877V32.7711C45.8333 29.4586 44.5 28.1252 41.1875 28.1252H32.7708C29.4583 28.1252 28.125 29.4586 28.125 32.7711V41.1877C28.125 44.5002 29.4583 45.8336 32.7708 45.8336H41.1875C44.5 45.8336 45.8333 44.5002 45.8333 41.1877Z" fill="#FA61A4"/>
<path d="M21.8748 17.7503V8.29199C21.8748 5.35449 20.5415 4.16699 17.229 4.16699H8.81234C5.49984 4.16699 4.1665 5.35449 4.1665 8.29199V17.7295C4.1665 20.6878 5.49984 21.8545 8.81234 21.8545H17.229C20.5415 21.8753 21.8748 20.6878 21.8748 17.7503Z" fill="#FA61A4"/>
<path opacity="0.5" d="M21.8748 41.1877V32.7711C21.8748 29.4586 20.5415 28.1252 17.229 28.1252H8.81234C5.49984 28.1252 4.1665 29.4586 4.1665 32.7711V41.1877C4.1665 44.5002 5.49984 45.8336 8.81234 45.8336H17.229C20.5415 45.8336 21.8748 44.5002 21.8748 41.1877Z" fill="#FA61A4"/>
</svg>
