<?xml version="1.0" encoding="UTF-8"?>
<svg version="1.1" xmlns="http://www.w3.org/2000/svg" width="92" height="92">
<path d="M0 0 C2.12890625 0.48046875 2.12890625 0.48046875 4.69140625 2.54296875 C6.47338398 6.18440151 6.63932667 8.47002257 6.12890625 12.48046875 C4.42278168 15.48649776 3.05163246 16.53198461 0.12890625 18.48046875 C1.44890625 21.12046875 2.76890625 23.76046875 4.12890625 26.48046875 C5.39347656 26.51785156 6.65804688 26.55523438 7.9609375 26.59375 C9.62112355 26.65940708 11.28127847 26.72585451 12.94140625 26.79296875 C13.77478516 26.81552734 14.60816406 26.83808594 15.46679688 26.86132812 C16.67045898 26.91450195 16.67045898 26.91450195 17.8984375 26.96875 C19.00602417 27.00802612 19.00602417 27.00802612 20.13598633 27.0480957 C22.6752103 27.5989919 23.6102538 28.3892641 25.12890625 30.48046875 C25.00390625 34.04296875 25.00390625 34.04296875 24.12890625 37.48046875 C20.92484163 39.61651183 20.13289878 39.72255783 16.4609375 39.67578125 C15.56826172 39.66933594 14.67558594 39.66289063 13.75585938 39.65625 C12.82708984 39.63949219 11.89832031 39.62273438 10.94140625 39.60546875 C10.00103516 39.59644531 9.06066406 39.58742187 8.09179688 39.578125 C5.77057657 39.55455931 3.44986981 39.52165991 1.12890625 39.48046875 C1.12890625 41.46046875 1.12890625 43.44046875 1.12890625 45.48046875 C1.94875 45.650625 2.76859375 45.82078125 3.61328125 45.99609375 C4.6909375 46.2384375 5.76859375 46.48078125 6.87890625 46.73046875 C7.94625 46.9625 9.01359375 47.19453125 10.11328125 47.43359375 C13.56444685 48.63166678 14.92827911 49.58008079 17.12890625 52.48046875 C18.19592201 54.94302882 19.07780055 57.25109563 19.87890625 59.79296875 C20.09933594 60.43169922 20.31976563 61.07042969 20.546875 61.72851562 C21.96999027 66.09067331 22.34168459 69.91164502 22.12890625 74.48046875 C24.43890625 74.81046875 26.74890625 75.14046875 29.12890625 75.48046875 C29.10828125 74.20171875 29.08765625 72.92296875 29.06640625 71.60546875 C29.00390625 67.73046875 29.00390625 67.73046875 30.12890625 65.48046875 C39.03890625 65.48046875 47.94890625 65.48046875 57.12890625 65.48046875 C57.12890625 60.20046875 57.12890625 54.92046875 57.12890625 49.48046875 C55.47890625 49.48046875 53.82890625 49.48046875 52.12890625 49.48046875 C51.46484375 47.71484375 51.46484375 47.71484375 51.12890625 45.48046875 C53.08004455 41.8715964 55.70227766 38.94412304 59.62890625 37.66796875 C63.43052396 38.90349451 65.85892374 41.2168912 68.12890625 44.48046875 C68.50390625 47.35546875 68.50390625 47.35546875 68.12890625 49.48046875 C66.47890625 49.48046875 64.82890625 49.48046875 63.12890625 49.48046875 C63.13414307 50.11138428 63.13937988 50.7422998 63.14477539 51.39233398 C63.16548451 54.23420222 63.17854691 57.07605463 63.19140625 59.91796875 C63.19978516 60.91119141 63.20816406 61.90441406 63.21679688 62.92773438 C63.22001953 63.87197266 63.22324219 64.81621094 63.2265625 65.7890625 C63.23179932 66.66361084 63.23703613 67.53815918 63.24243164 68.43920898 C63.12890625 70.48046875 63.12890625 70.48046875 62.12890625 71.48046875 C60.20223118 71.56795082 58.27238764 71.58744209 56.34375 71.578125 C54.58901367 71.57329102 54.58901367 71.57329102 52.79882812 71.56835938 C51.56712891 71.55998047 50.33542969 71.55160156 49.06640625 71.54296875 C47.21305664 71.53620117 47.21305664 71.53620117 45.32226562 71.52929688 C42.25776508 71.51746483 39.19335904 71.50098048 36.12890625 71.48046875 C36.15210938 72.10695313 36.1753125 72.7334375 36.19921875 73.37890625 C36.21726563 74.19617188 36.2353125 75.0134375 36.25390625 75.85546875 C36.27710938 76.66757813 36.3003125 77.4796875 36.32421875 78.31640625 C36.12890625 80.48046875 36.12890625 80.48046875 34.12890625 82.48046875 C31.60693359 82.70751953 31.60693359 82.70751953 28.46484375 82.67578125 C27.34335937 82.66933594 26.221875 82.66289063 25.06640625 82.65625 C23.30296875 82.63111328 23.30296875 82.63111328 21.50390625 82.60546875 C20.32054687 82.59644531 19.1371875 82.58742188 17.91796875 82.578125 C14.98808102 82.55449687 12.05859285 82.52155389 9.12890625 82.48046875 C9.14050781 83.11855469 9.15210938 83.75664063 9.1640625 84.4140625 C9.17308594 85.24035156 9.18210938 86.06664063 9.19140625 86.91796875 C9.20300781 87.74167969 9.21460938 88.56539063 9.2265625 89.4140625 C9.12890625 91.48046875 9.12890625 91.48046875 8.12890625 92.48046875 C5.75322105 92.56886545 3.40681951 92.5957718 1.03125 92.578125 C-0.03203773 92.57600258 -0.03203773 92.57600258 -1.11680603 92.57383728 C-3.38911087 92.56822318 -5.6613185 92.55566838 -7.93359375 92.54296875 C-9.47070171 92.53795556 -11.0078112 92.53339234 -12.54492188 92.52929688 C-16.32035017 92.51824917 -20.09570546 92.50097516 -23.87109375 92.48046875 C-23.91381475 90.8143497 -23.91173207 89.1466399 -23.87109375 87.48046875 C-21.90286489 85.51223989 -18.52300666 85.81798494 -15.87109375 85.48046875 C-15.93296875 84.20171875 -15.99484375 82.92296875 -16.05859375 81.60546875 C-16.09389544 73.46254606 -14.33167876 65.46152258 -12.87109375 57.48046875 C-8.4822005 58.14545258 -4.88994525 59.66804552 -0.87109375 61.48046875 C-1.31921165 64.71113839 -1.781394 67.93964595 -2.24609375 71.16796875 C-2.37242188 72.07998047 -2.49875 72.99199219 -2.62890625 73.93164062 C-3.27403486 78.36689985 -3.89666035 82.40283456 -5.87109375 86.48046875 C-2.90109375 86.48046875 0.06890625 86.48046875 3.12890625 86.48046875 C3.11730469 85.77019531 3.10570313 85.05992188 3.09375 84.328125 C3.08472656 83.40902344 3.07570313 82.48992187 3.06640625 81.54296875 C3.05480469 80.62644531 3.04320313 79.70992188 3.03125 78.765625 C3.12890625 76.48046875 3.12890625 76.48046875 4.12890625 75.48046875 C6.45708589 75.11286144 8.79074475 74.77805294 11.12890625 74.48046875 C9.16769098 65.60778852 9.16769098 65.60778852 3.78125 58.765625 C1.24895131 57.81458069 -1.24442939 57.11825307 -3.87109375 56.48046875 C-9.57109375 53.78046875 -9.57109375 53.78046875 -10.87109375 52.48046875 C-10.99672187 50.06726676 -11.05970922 47.68419834 -11.07421875 45.26953125 C-11.07991882 44.54559174 -11.0856189 43.82165222 -11.0914917 43.07577515 C-11.10095495 41.54076607 -11.10748092 40.00573655 -11.11132812 38.47070312 C-11.12102535 36.1220345 -11.15203104 33.77424394 -11.18359375 31.42578125 C-11.19012444 29.93620313 -11.19537465 28.44661873 -11.19921875 26.95703125 C-11.21156555 26.25381744 -11.22391235 25.55060364 -11.2366333 24.82608032 C-11.21425112 19.92445752 -11.21425112 19.92445752 -9.35058594 17.51318359 C-8.86235352 17.1723877 -8.37412109 16.8315918 -7.87109375 16.48046875 C-8.36609375 15.77921875 -8.86109375 15.07796875 -9.37109375 14.35546875 C-11.12880951 10.98651354 -11.41784902 9.22964778 -10.87109375 5.48046875 C-8.29697922 0.33223968 -5.41218741 -0.32990269 0 0 Z " fill="#000000" transform="translate(23.87109375,-0.48046875)"/>
<path d="M0 0 C0 6.93 0 13.86 0 21 C-4.02835993 18.98582003 -6.20616235 17.49229706 -9 14 C-9.75 10.625 -9.75 10.625 -9 7 C-3.73294347 0 -3.73294347 0 0 0 Z " fill="#000000" transform="translate(9,22)"/>
</svg>
