<?xml version="1.0" encoding="UTF-8"?>
<svg version="1.1" xmlns="http://www.w3.org/2000/svg" width="92" height="92">
<path d="M0 0 C6.45282366 4.00665521 11.05927649 9.8358703 13.0625 17.16015625 C15.70905358 31.31449194 9.25506772 43.98480704 1.5 55.5 C-1.99072456 60.30728723 -5.71547251 64.92239138 -9.5 69.5 C-13.09866713 69.2634979 -14.33120317 68.67265189 -16.89453125 66.05078125 C-17.71729279 64.98408285 -18.52242218 63.90362743 -19.3125 62.8125 C-19.74191895 62.2337915 -20.17133789 61.65508301 -20.61376953 61.05883789 C-29.17746642 49.27147781 -38.86024433 34.69997349 -36.5 19.5 C-34.38302977 11.50735728 -31.66491176 5.40443941 -24.6875 0.6875 C-17.46774295 -3.08972389 -7.49170863 -3.25662968 0 0 Z M-18.5 18.5 C-19.58805146 20.8566226 -19.58805146 20.8566226 -19.5 23.5 C-17.87844371 26.98634601 -16.73546708 28.34302194 -13.5 30.5 C-10.3743988 30.30464992 -8.24750055 30.0412935 -5.6875 28.1875 C-4.2397722 26.1302026 -3.64477723 25.03360158 -3.5 22.5 C-5.09514784 18.21388753 -5.09514784 18.21388753 -8.5 15.5 C-12.8563917 15.12118333 -15.4402764 15.2136302 -18.5 18.5 Z " fill="#000000" transform="translate(57.5,1.5)"/>
<path d="M0 0 C5.53032883 -0.36868859 5.53032883 -0.36868859 7.5715332 1.23364258 C9.18418553 3.22775292 10.07174725 5.07689082 11.04296875 7.44921875 C11.39423828 8.29677734 11.74550781 9.14433594 12.10742188 10.01757812 C12.46384766 10.89865234 12.82027344 11.77972656 13.1875 12.6875 C13.55552734 13.58017578 13.92355469 14.47285156 14.30273438 15.39257812 C15.20854275 17.59239846 16.10733011 19.79482294 17 22 C13.82591123 24.53726149 10.5152885 26.41038603 6.9140625 28.28515625 C6.33465912 28.58691269 5.75525574 28.88866913 5.15829468 29.1995697 C3.93720201 29.83416453 2.71514621 30.46690917 1.4921875 31.09790039 C-0.36512049 32.05739619 -2.21783717 33.02535407 -4.0703125 33.99414062 C-5.26275261 34.61249669 -6.45545267 35.23035176 -7.6484375 35.84765625 C-8.72270996 36.40461182 -9.79698242 36.96156738 -10.90380859 37.53540039 C-13.89097038 38.94842543 -16.84529076 40.02683937 -20 41 C-23.00803572 38.04974274 -26.0050179 35.08850331 -29 32.125 C-29.85851563 31.28324219 -30.71703125 30.44148438 -31.6015625 29.57421875 C-32.41367187 28.76855469 -33.22578125 27.96289062 -34.0625 27.1328125 C-34.81660156 26.38918457 -35.57070313 25.64555664 -36.34765625 24.87939453 C-38 23 -38 23 -38 21 C-36.02 20.34 -34.04 19.68 -32 19 C-30.14453125 21.29492188 -30.14453125 21.29492188 -28.2890625 23.58984375 C-26.34297384 25.7187468 -25.06173475 25.9917687 -22.1875 26.375 C-17.07818384 25.77390398 -14.85853529 22.05258779 -11.71875 18.203125 C-7.32059154 12.34923804 -3.29134494 6.54961103 0 0 Z " fill="#000000" transform="translate(68,48)"/>
<path d="M0 0 C2.20114635 1.49259507 3.99940847 3.09872814 5.88378906 4.9765625 C6.59277344 5.68296875 7.30175781 6.389375 8.03222656 7.1171875 C8.76183594 7.85453125 9.49144531 8.591875 10.24316406 9.3515625 C10.98824219 10.08890625 11.73332031 10.82625 12.50097656 11.5859375 C13.55671875 12.64554688 13.55671875 12.64554688 14.63378906 13.7265625 C15.27864258 14.37367187 15.92349609 15.02078125 16.58789062 15.6875 C17.99316406 17.3515625 17.99316406 17.3515625 17.99316406 19.3515625 C3.47316406 19.3515625 -11.04683594 19.3515625 -26.00683594 19.3515625 C-26.00683594 13.3515625 -26.00683594 13.3515625 -24.7487793 11.61352539 C-22.92822109 10.29460943 -21.13123263 9.19683378 -19.13574219 8.16015625 C-18.39646484 7.77279297 -17.6571875 7.38542969 -16.89550781 6.98632812 C-15.74405273 6.39368164 -15.74405273 6.39368164 -14.56933594 5.7890625 C-13.80556641 5.39009766 -13.04179687 4.99113281 -12.25488281 4.58007812 C-10.17596499 3.49629068 -8.09431943 2.41875184 -6.00683594 1.3515625 C-5.34675537 0.937854 -4.6866748 0.52414551 -4.0065918 0.09790039 C-2.00683594 -0.6484375 -2.00683594 -0.6484375 0 0 Z " fill="#000000" transform="translate(26.0068359375,72.6484375)"/>
<path d="M0 0 C3.875 0.8125 3.875 0.8125 5.859375 3.34765625 C8.4392148 7.73444996 10.73857211 11.83475799 11.875 16.8125 C8.87574658 18.39725045 5.87545992 19.98003521 2.875 21.5625 C2.03582031 22.0059375 1.19664063 22.449375 0.33203125 22.90625 C-4.78991841 25.60619246 -9.93666899 28.24235454 -15.125 30.8125 C-14.55588328 26.61410433 -13.57951706 23.10440181 -11.875 19.23046875 C-11.4315625 18.21662109 -10.988125 17.20277344 -10.53125 16.15820312 C-9.83515625 14.59489258 -9.83515625 14.59489258 -9.125 13 C-8.6609375 11.93845703 -8.196875 10.87691406 -7.71875 9.78320312 C-3.85339602 1.00188297 -3.85339602 1.00188297 0 0 Z " fill="#000000" transform="translate(20.125,47.1875)"/>
<path d="M0 0 C0.84761822 1.70129086 1.6774868 3.41143084 2.5 5.125 C2.9640625 6.07632813 3.428125 7.02765625 3.90625 8.0078125 C5 11 5 11 5 17 C-7.54 17 -20.08 17 -33 17 C-31.37318485 13.7463697 -27.91582361 12.82960067 -24.75 11.3125 C-18.24200821 8.14165811 -11.88634513 4.79809613 -5.57421875 1.25 C-3 0 -3 0 0 0 Z " fill="#000000" transform="translate(87,75)"/>
<path d="M0 0 C1.67542976 0.28604898 3.34385343 0.61781233 5 1 C4.67 2.65 4.34 4.3 4 6 C3.01 6.33 2.02 6.66 1 7 C0.34 6.67 -0.32 6.34 -1 6 C-1.042721 4.33388095 -1.04063832 2.66617115 -1 1 C-0.67 0.67 -0.34 0.34 0 0 Z " fill="#000000" transform="translate(44,21)"/>
</svg>
