<svg width="50" height="50" viewBox="0 0 50 50" fill="none" xmlns="http://www.w3.org/2000/svg">
<path d="M40.6252 15.6252L37.521 18.7293L31.271 12.4793L34.3752 9.37516C35.2502 8.50016 36.3752 8.0835 37.5002 8.0835C38.6252 8.0835 39.7502 8.50016 40.6252 9.37516C42.3543 11.1043 42.3543 13.896 40.6252 15.6252Z" fill="#FA61A4"/>
<path d="M36.0623 20.2085L13.5415 42.7085C11.8123 44.4377 9.02067 44.4377 7.2915 42.7085C5.56234 40.9793 5.56234 38.1877 7.2915 36.4585L29.8123 13.9585L36.0623 20.2085Z" fill="#FA61A4"/>
<path opacity="0.5" d="M20.7294 7.29182L21.5836 4.39599C21.6669 4.12516 21.5836 3.83349 21.3961 3.62516C21.2086 3.41682 20.8752 3.33349 20.6044 3.41682L17.7086 4.27099L14.8127 3.41682C14.5419 3.33349 14.2502 3.41682 14.0419 3.60432C13.8336 3.81266 13.7711 4.10432 13.8544 4.37516L14.6877 7.29182L13.8336 10.1877C13.7502 10.4585 13.8336 10.7502 14.0211 10.9585C14.2294 11.1668 14.5211 11.2293 14.7919 11.146L17.7086 10.3127L20.6044 11.1668C20.6877 11.1877 20.7502 11.2085 20.8336 11.2085C21.0419 11.2085 21.2294 11.1252 21.3961 10.9793C21.6044 10.771 21.6669 10.4793 21.5836 10.2085L20.7294 7.29182Z" fill="#FA61A4"/>
<path opacity="0.5" d="M12.3959 19.7918L13.2501 16.896C13.3334 16.6252 13.2501 16.3335 13.0626 16.1252C12.8542 15.9168 12.5626 15.8543 12.2917 15.9377L9.37508 16.771L6.47924 15.9168C6.20841 15.8335 5.91674 15.9168 5.70841 16.1043C5.50008 16.3127 5.43758 16.6043 5.52091 16.8752L6.35424 19.7918L5.50008 22.6877C5.41674 22.9585 5.50008 23.2502 5.68758 23.4585C5.89591 23.6668 6.18758 23.7293 6.45841 23.646L9.35424 22.7918L12.2501 23.646C12.3126 23.6668 12.3959 23.6668 12.4792 23.6668C12.6876 23.6668 12.8751 23.5835 13.0417 23.4377C13.2501 23.2293 13.3126 22.9377 13.2292 22.6668L12.3959 19.7918Z" fill="#FA61A4"/>
<path opacity="0.5" d="M43.6457 30.2085L44.4999 27.3127C44.5832 27.0418 44.4999 26.7502 44.3124 26.5418C44.1041 26.3335 43.8124 26.271 43.5416 26.3543L40.6457 27.2085L37.7499 26.3543C37.4791 26.271 37.1874 26.3543 36.9791 26.5418C36.7707 26.7502 36.7082 27.0418 36.7916 27.3127L37.6457 30.2085L36.7916 33.1043C36.7082 33.3752 36.7916 33.6668 36.9791 33.8752C37.1874 34.0835 37.4791 34.146 37.7499 34.0627L40.6457 33.2085L43.5416 34.0627C43.6041 34.0835 43.6874 34.0835 43.7707 34.0835C43.9791 34.0835 44.1666 34.0002 44.3332 33.8543C44.5416 33.646 44.6041 33.3543 44.5207 33.0835L43.6457 30.2085Z" fill="#FA61A4"/>
</svg>
