<svg width="25" height="30" viewBox="0 0 25 30" fill="none" xmlns="http://www.w3.org/2000/svg">
<path d="M6.61779e-08 1.66714V28.3338C-8.34901e-05 28.6304 0.078958 28.9216 0.228969 29.1774C0.378981 29.4332 0.594528 29.6443 0.853374 29.789C1.11222 29.9337 1.40499 30.0068 1.70147 30.0006C1.99796 29.9944 2.28742 29.9092 2.54 29.7538L24.2067 16.4205C24.4493 16.2714 24.6497 16.0625 24.7888 15.814C24.9278 15.5654 25.0008 15.2853 25.0008 15.0005C25.0008 14.7157 24.9278 14.4356 24.7888 14.187C24.6497 13.9384 24.4493 13.7296 24.2067 13.5805L2.54 0.247136C2.28742 0.0917442 1.99796 0.00655687 1.70147 0.000363593C1.40499 -0.00582969 1.11222 0.0671954 0.853374 0.211904C0.594528 0.356614 0.378981 0.567765 0.228969 0.823575C0.078958 1.07938 -8.34901e-05 1.37059 6.61779e-08 1.66714Z" fill="black"/>
</svg>
