<?xml version="1.0" encoding="UTF-8"?>
<svg version="1.1" xmlns="http://www.w3.org/2000/svg" width="92" height="92">
<path d="M0 0 C1.21458389 -0.00622879 2.42916779 -0.01245758 3.68055725 -0.01887512 C5.64937111 -0.0050605 5.64937111 -0.0050605 7.65795898 0.0090332 C9.01651509 0.00955185 10.37507196 0.00903398 11.73362732 0.00752258 C14.57920552 0.00761226 17.42450016 0.01803409 20.27001953 0.03613281 C23.92096358 0.05884174 27.57149409 0.05935987 31.22248936 0.05261517 C34.02686756 0.04927732 36.83115113 0.05590137 39.6355114 0.0657444 C41.6374979 0.07147464 43.63950053 0.07015937 45.64149475 0.06877136 C46.85292648 0.07830338 48.06435822 0.08783539 49.3125 0.09765625 C50.38266861 0.10226364 51.45283722 0.10687103 52.55543518 0.11161804 C55.09155273 0.37231445 55.09155273 0.37231445 57.09155273 2.37231445 C57.31860352 5.07788086 57.31860352 5.07788086 57.28686523 8.47387695 C57.28041992 9.6855957 57.27397461 10.89731445 57.26733398 12.14575195 C57.24219727 14.05227539 57.24219727 14.05227539 57.21655273 15.99731445 C57.2075293 17.27606445 57.19850586 18.55481445 57.18920898 19.87231445 C57.16557576 23.03916612 57.13262902 26.20564869 57.09155273 29.37231445 C56.41608398 29.55407227 55.74061523 29.73583008 55.04467773 29.9230957 C54.15264648 30.17446289 53.26061523 30.42583008 52.34155273 30.68481445 C51.45983398 30.92844727 50.57811523 31.17208008 49.66967773 31.4230957 C44.51530181 33.3208432 41.08690659 36.87928367 38.09155273 41.37231445 C35.94360352 41.56665039 35.94360352 41.56665039 33.28686523 41.35668945 C22.62738246 40.49685249 22.62738246 40.49685249 12.86547852 43.87866211 C8.84972167 47.87993284 6.06134475 52.58028112 3.09155273 57.37231445 C2.43155273 57.37231445 1.77155273 57.37231445 1.09155273 57.37231445 C1.09155273 52.09231445 1.09155273 46.81231445 1.09155273 41.37231445 C-1.21844727 41.37231445 -3.52844727 41.37231445 -5.90844727 41.37231445 C-7.82104492 40.36254883 -7.82104492 40.36254883 -8.90844727 38.37231445 C-9.20666196 35.67900435 -9.32896387 33.22155651 -9.30688477 30.52856445 C-9.30975494 29.76306274 -9.31262512 28.99756104 -9.31558228 28.2088623 C-9.31762226 26.59162658 -9.31209689 24.97436615 -9.29956055 23.35717773 C-9.28350484 20.88119354 -9.29941023 18.40684161 -9.31860352 15.9309082 C-9.31662107 14.35929002 -9.31277737 12.78767284 -9.30688477 11.21606445 C-9.31295746 10.4753772 -9.31903015 9.73468994 -9.32528687 8.97155762 C-9.25561752 3.8820598 -9.25561752 3.8820598 -7.75346375 1.6764679 C-5.12811116 -0.17926763 -3.19813857 -0.0018796 0 0 Z M6.09155273 12.37231445 C6.09155273 13.03231445 6.09155273 13.69231445 6.09155273 14.37231445 C17.97155273 14.37231445 29.85155273 14.37231445 42.09155273 14.37231445 C42.09155273 13.71231445 42.09155273 13.05231445 42.09155273 12.37231445 C30.21155273 12.37231445 18.33155273 12.37231445 6.09155273 12.37231445 Z M6.09155273 26.37231445 C6.09155273 26.70231445 6.09155273 27.03231445 6.09155273 27.37231445 C18.30155273 27.37231445 30.51155273 27.37231445 43.09155273 27.37231445 C43.09155273 27.04231445 43.09155273 26.71231445 43.09155273 26.37231445 C30.88155273 26.37231445 18.67155273 26.37231445 6.09155273 26.37231445 Z " fill="#000000" transform="translate(10.908447265625,9.627685546875)"/>
<path d="M0 0 C4.21209993 3.57206832 6.88603998 7.5415959 8 13 C8.58845454 20.29683631 7.45260641 26.00236994 2.75 31.75 C-3.92893865 37.21458617 -8.12570209 38.73345442 -16.8359375 38.453125 C-22.82756299 37.59506505 -26.35225333 34.77783193 -30.375 30.4375 C-34.63222438 24.05166343 -34.60641298 18.59911267 -34 11 C-31.78391773 4.4683891 -27.07557264 0.11567827 -21 -3 C-13.70262986 -5.67570239 -6.52739833 -3.66695689 0 0 Z M-24.8046875 4.4453125 C-29.20781426 8.97484482 -29.80872187 12.7834608 -30 19 C-26.7 19 -23.4 19 -20 19 C-19.01 16.69 -18.02 14.38 -17 12 C-13.625 11.875 -13.625 11.875 -10 12 C-7.77810176 14.22189824 -7.07401108 16.08482708 -6 19 C-3.03 19 -0.06 19 3 19 C3.57446513 13.48513478 2.63707441 10.30896762 -0.515625 5.73046875 C-3.55384481 2.18854408 -6.98707953 1.26260901 -11.375 0.125 C-16.71791933 -0.0592386 -20.605358 1.08221311 -24.8046875 4.4453125 Z M-12 17 C-12.48198463 18.24891614 -12.96045677 19.49918808 -13.4375 20.75 C-13.70433594 21.44609375 -13.97117187 22.1421875 -14.24609375 22.859375 C-14.96146693 24.89059003 -15.51365652 26.9035291 -16 29 C-14.68 29.33 -13.36 29.66 -12 30 C-9.68398917 27.26013819 -9.68398917 27.26013819 -10.375 24.625 C-10.684375 23.325625 -10.684375 23.325625 -11 22 C-11.0370279 20.3337447 -11.04759962 18.66598681 -11 17 C-11.33 17 -11.66 17 -12 17 Z " fill="#000000" transform="translate(82,44)"/>
<path d="M0 0 C4.80201141 2.4321876 6.85039426 5.46827392 8.9921875 10.3515625 C9.2421875 13.2890625 9.2421875 13.2890625 8.9921875 15.3515625 C6.6821875 15.3515625 4.3721875 15.3515625 1.9921875 15.3515625 C1.5796875 14.4028125 1.1671875 13.4540625 0.7421875 12.4765625 C-0.72647584 9.37119086 -0.72647584 9.37119086 -2.8828125 7.9140625 C-5.65156103 7.18115848 -7.29812513 7.44833338 -10.0078125 8.3515625 C-12.67661155 10.35316179 -13.44658528 12.09644461 -14.0078125 15.3515625 C-16.6478125 15.3515625 -19.2878125 15.3515625 -22.0078125 15.3515625 C-21.43333795 10.07577583 -20.65927699 6.39023285 -16.5078125 2.8515625 C-11.39800464 -1.04574858 -6.26043468 -2.02185244 0 0 Z " fill="#000000" transform="translate(75.0078125,46.6484375)"/>
</svg>
