<svg width="50" height="50" viewBox="0 0 50 50" fill="none" xmlns="http://www.w3.org/2000/svg">
<path opacity="0.5" d="M31.2501 47.3962C30.6876 47.3962 30.1667 47.0837 29.8959 46.6045C29.6251 46.1045 29.6251 45.5212 29.9167 45.0212L32.1042 41.3753C32.5417 40.6253 33.5209 40.3962 34.2501 40.8337C35.0001 41.2712 35.2292 42.2295 34.7917 42.9795L34.2292 43.917C39.9792 42.5628 44.2917 37.3962 44.2917 31.2295C44.2917 30.3753 45.0001 29.667 45.8542 29.667C46.7084 29.667 47.4167 30.3753 47.4167 31.2295C47.3959 40.1462 40.1459 47.3962 31.2501 47.3962Z" fill="#FA61A4"/>
<path opacity="0.5" d="M4.1665 20.3128C3.31234 20.3128 2.604 19.6045 2.604 18.7503C2.604 9.85449 9.854 2.60449 18.7498 2.60449C19.3123 2.60449 19.8332 2.91699 20.104 3.39616C20.3748 3.89616 20.3748 4.47949 20.0832 4.97949L17.8957 8.62533C17.4582 9.35449 16.4998 9.60449 15.7498 9.14616C15.0207 8.70866 14.7707 7.75033 15.229 7.00033L15.7915 6.06283C10.0207 7.41699 5.729 12.5837 5.729 18.7503C5.729 19.6045 5.02067 20.3128 4.1665 20.3128Z" fill="#FA61A4"/>
<path d="M30.8332 26.3128V32.4378C30.8332 37.542 28.7915 39.5837 23.6873 39.5837H17.5623C12.4582 39.5837 10.4165 37.542 10.4165 32.4378V26.3128C10.4165 21.2087 12.4582 19.167 17.5623 19.167H23.6873C28.7915 19.167 30.8332 21.2087 30.8332 26.3128Z" fill="#FA61A4"/>
<path d="M32.4375 10.417H26.3125C21.2917 10.417 19.25 12.417 19.1875 17.3337H23.6875C29.8125 17.3337 32.6458 20.1878 32.6458 26.292V30.792C37.5833 30.7295 39.5625 28.6878 39.5625 23.667V17.5628C39.5833 12.4587 37.5417 10.417 32.4375 10.417Z" fill="#FA61A4"/>
</svg>
