<svg width="26" height="26" viewBox="0 0 26 26" fill="none" xmlns="http://www.w3.org/2000/svg">
<path d="M4.33203 8.66634C4.33203 7.51707 4.78858 6.41487 5.60123 5.60221C6.41389 4.78955 7.51609 4.33301 8.66536 4.33301H17.332C18.4813 4.33301 19.5835 4.78955 20.3962 5.60221C21.2088 6.41487 21.6654 7.51707 21.6654 8.66634V17.333C21.6654 18.4823 21.2088 19.5845 20.3962 20.3971C19.5835 21.2098 18.4813 21.6663 17.332 21.6663H8.66536C7.51609 21.6663 6.41389 21.2098 5.60123 20.3971C4.78858 19.5845 4.33203 18.4823 4.33203 17.333V8.66634Z" stroke="white" stroke-width="1.5" stroke-linecap="round" stroke-linejoin="round"/>
<path d="M9.75 13C9.75 13.862 10.0924 14.6886 10.7019 15.2981C11.3114 15.9076 12.138 16.25 13 16.25C13.862 16.25 14.6886 15.9076 15.2981 15.2981C15.9076 14.6886 16.25 13.862 16.25 13C16.25 12.138 15.9076 11.3114 15.2981 10.7019C14.6886 10.0924 13.862 9.75 13 9.75C12.138 9.75 11.3114 10.0924 10.7019 10.7019C10.0924 11.3114 9.75 12.138 9.75 13Z" stroke="white" stroke-width="1.5" stroke-linecap="round" stroke-linejoin="round"/>
<path d="M17.875 8.125V8.1393" stroke="white" stroke-width="1.5" stroke-linecap="round" stroke-linejoin="round"/>
</svg>
