<svg width="26" height="26" viewBox="0 0 26 26" fill="none" xmlns="http://www.w3.org/2000/svg">
<g clip-path="url(#clip0_333_2392)">
<path d="M22.75 8.57675V12.9469C20.7849 12.752 18.9111 12.0208 17.3333 10.8333V15.7083C17.333 17.0312 16.9601 18.3273 16.2573 19.448C15.5544 20.5687 14.5501 21.4688 13.3593 22.0451C12.1685 22.6214 10.8395 22.8506 9.52451 22.7065C8.20949 22.5624 6.96167 22.0508 5.924 21.2302C4.88633 20.4097 4.10078 19.3134 3.65736 18.0671C3.21394 16.8207 3.13058 15.4747 3.41682 14.1831C3.70307 12.8916 4.34734 11.7068 5.27584 10.7645C6.20433 9.82215 7.37948 9.16045 8.66667 8.85517V13.5417C8.29735 13.8187 8.00496 14.1855 7.81727 14.6072C7.62958 15.029 7.55282 15.4918 7.59428 15.9516C7.63574 16.4113 7.79404 16.8529 8.05415 17.2343C8.31426 17.6157 8.66755 17.9243 9.08046 18.1307C9.49338 18.3372 9.95222 18.4347 10.4134 18.4139C10.8746 18.3932 11.3228 18.2549 11.7155 18.0122C12.1082 17.7695 12.4324 17.4304 12.6572 17.0272C12.882 16.624 13 16.17 13 15.7083V3.25H17.4233C17.6488 4.58077 18.2827 5.80843 19.2372 6.76285C20.1916 7.71726 21.4192 8.35118 22.75 8.57675Z" stroke="white" stroke-width="1.5" stroke-linecap="round" stroke-linejoin="round"/>
</g>
<defs>
<clipPath id="clip0_333_2392">
<rect width="26" height="26" fill="white"/>
</clipPath>
</defs>
</svg>
